<svg width="27" height="26" viewBox="0 0 27 26" fill="none" xmlns="http://www.w3.org/2000/svg">
<path d="M1.7146 19.5002C1.7146 19.8188 1.90067 20.108 2.19107 20.2397L11.0144 24.3752L11.0573 13.2598L1.7146 8.94775V19.5002Z" fill="#00699B"/>
<path d="M16.3706 11.1836L11.8705 13.2606L11.8274 24.3751L20.7388 20.2396C21.0292 20.1079 21.2152 19.8187 21.2152 19.5001V11.9481C20.6998 12.1021 20.1551 12.1876 19.5902 12.1876C18.3954 12.1876 17.2869 11.8155 16.3706 11.1836Z" fill="#00699B"/>
<path d="M13.9047 6.49995C13.9047 6.0397 13.9656 5.59437 14.0693 5.16551L11.8032 4.13545C11.5898 4.03786 11.3446 4.03786 11.1312 4.13545C11.1312 4.13545 2.14953 8.22771 2.12622 8.2412L11.4672 12.5524L15.6731 10.6113C14.5862 9.57475 13.9047 8.11687 13.9047 6.49995Z" fill="#00699B"/>
<path d="M19.5896 1.625C16.8972 1.625 14.7146 3.8076 14.7146 6.5C14.7146 9.1924 16.8972 11.375 19.5896 11.375C22.282 11.375 24.4646 9.1924 24.4646 6.5C24.4646 3.8076 22.282 1.625 19.5896 1.625ZM23.2458 6.90625H19.9958V10.1562C19.9958 10.3808 19.8141 10.5625 19.5896 10.5625C19.3651 10.5625 19.1833 10.3808 19.1833 10.1562V6.90625H15.9333C15.7088 6.90625 15.5271 6.72455 15.5271 6.5C15.5271 6.27545 15.7088 6.09375 15.9333 6.09375H19.1833V2.84375C19.1833 2.6192 19.3651 2.4375 19.5896 2.4375C19.8141 2.4375 19.9958 2.6192 19.9958 2.84375V6.09375H23.2458C23.4704 6.09375 23.6521 6.27545 23.6521 6.5C23.6521 6.72455 23.4704 6.90625 23.2458 6.90625Z" fill="#00699B"/>
</svg>
