<svg width="23" height="24" viewBox="0 0 23 24" fill="none" xmlns="http://www.w3.org/2000/svg">
<path fill-rule="evenodd" clip-rule="evenodd" d="M19.2344 9.0634C19.2344 13.5857 15.5684 17.2518 11.046 17.2518C6.52373 17.2518 2.85767 13.5857 2.85767 9.0634C2.85767 4.54106 6.52373 0.875 11.046 0.875C15.5684 0.875 19.2344 4.54106 19.2344 9.0634ZM10.255 4.66806C10.6081 4.0618 11.4839 4.0618 11.8371 4.66806L12.703 6.15471C12.8323 6.37679 13.0491 6.53428 13.3003 6.58866L14.9817 6.95279C15.6674 7.10127 15.9381 7.93426 15.4706 8.45744L14.3243 9.74033C14.1531 9.932 14.0703 10.1868 14.0962 10.4425L14.2694 12.1542C14.3402 12.8522 13.6316 13.367 12.9895 13.0841L11.4152 12.3903C11.18 12.2867 10.9121 12.2867 10.6769 12.3903L9.10252 13.0841C8.46049 13.367 7.75191 12.8522 7.82262 12.1542L7.99591 10.4425C8.02178 10.1868 7.939 9.932 7.76775 9.74033L6.62147 8.45744C6.15398 7.93426 6.42465 7.10127 7.11034 6.95279L8.79179 6.58866C9.04299 6.53428 9.25973 6.37679 9.38909 6.15471L10.255 4.66806Z" fill="#454545"/>
<path d="M13.6065 17.7442C13.2044 17.8627 12.9933 18.3251 13.2029 18.6883L15.5883 22.8199C15.8266 23.2325 16.4246 23.2253 16.6527 22.807L18.0324 20.277C18.1418 20.0762 18.3544 19.9535 18.583 19.9591L21.4639 20.0292C21.9402 20.0408 22.2455 19.5266 22.0073 19.114L19.373 14.5514C19.1392 14.1464 18.5495 14.1414 18.2675 14.5145C17.1138 16.0407 15.4876 17.1898 13.6065 17.7442Z" fill="#454545"/>
<path d="M8.88803 18.6882C9.09767 18.3251 8.8866 17.8626 8.48441 17.7441C6.60331 17.1898 4.97709 16.0407 3.82342 14.5145C3.54147 14.1414 2.95171 14.1464 2.71791 14.5514L0.083727 19.1139C-0.154501 19.5265 0.150829 20.0408 0.627132 20.0292L3.50796 19.959C3.73658 19.9534 3.94914 20.0761 4.05863 20.2769L5.43829 22.8069C5.66639 23.2252 6.26441 23.2324 6.50261 22.8198L8.88803 18.6882Z" fill="#454545"/>
</svg>
