<svg width="29" height="29" viewBox="0 0 29 29" fill="none" xmlns="http://www.w3.org/2000/svg">
<g clip-path="url(#clip0_160_9638)">
<path fill-rule="evenodd" clip-rule="evenodd" d="M25.3583 14.4026H19.9179V15.5212C19.9179 15.797 19.6936 16.0213 19.4178 16.0213H4.97549C4.69973 16.0213 4.47538 15.797 4.47538 15.5197C4.47538 15.2439 4.69973 15.0196 4.97549 15.0196H18.9161V13.9025V7.57095V6.62839H9.86437C9.58861 6.62839 9.36426 6.4056 9.36426 6.12828C9.36426 5.85252 9.58861 5.62817 9.86437 5.62817H19.4162C19.6936 5.62817 19.9179 5.85252 19.9179 6.12828V7.07085H22.286C23.2379 7.07085 23.5978 7.95109 23.791 8.42316L25.8896 13.5551L28.4337 15.0227C28.588 15.113 28.6845 15.2782 28.6845 15.4558V20.3945C28.6845 20.6703 28.4602 20.8946 28.1829 20.8946H25.7696C25.5312 22.3139 24.2942 23.3983 22.8079 23.3983C21.3216 23.3983 20.083 22.3139 19.8447 20.8946H10.8521C10.6137 22.3139 9.37673 23.3983 7.89043 23.3983C6.40258 23.3983 5.16556 22.3139 4.92719 20.8946H4.49563C4.21832 20.8946 3.99397 20.6703 3.99397 20.3945C3.99397 20.1172 4.21832 19.8929 4.49563 19.8929H4.92719C5.16556 18.4736 6.40258 17.3892 7.89043 17.3892C9.37673 17.3892 10.6137 18.4736 10.8521 19.8929H19.8447C20.083 18.4736 21.3216 17.3892 22.8079 17.3892C24.2942 17.3892 25.5312 18.4736 25.7696 19.8929H27.6828V15.7456L25.3583 14.4026ZM8.74264 13.661H2.33162C2.05587 13.661 1.83152 13.4367 1.83152 13.1609C1.83152 12.8836 2.05587 12.6593 2.33162 12.6593H8.74264C9.01995 12.6593 9.24274 12.8836 9.24274 13.1609C9.24274 13.4367 9.01995 13.661 8.74264 13.661ZM7.46043 11.4176H1.04942C0.772105 11.4176 0.549316 11.1932 0.549316 10.9159C0.549316 10.6401 0.772105 10.4158 1.04942 10.4158H7.46043C7.73619 10.4158 7.96054 10.6401 7.96054 10.9159C7.96054 11.1932 7.73619 11.4176 7.46043 11.4176ZM9.86437 9.17254H3.45336C3.1776 9.17254 2.95325 8.94975 2.95325 8.67243C2.95325 8.39667 3.1776 8.17233 3.45336 8.17233H9.86437C10.1417 8.17233 10.3645 8.39667 10.3645 8.67243C10.3645 8.94975 10.1417 9.17254 9.86437 9.17254ZM22.8079 18.3894C21.7018 18.3894 20.8028 19.2884 20.8028 20.3945C20.8028 21.4991 21.7018 22.3981 22.8079 22.3981C23.9125 22.3981 24.8115 21.4991 24.8115 20.3945C24.8115 19.2884 23.9125 18.3894 22.8079 18.3894ZM7.89043 18.3894C6.78584 18.3894 5.88689 19.2884 5.88533 20.3914V20.3945V20.3961C5.88689 21.5007 6.78584 22.3981 7.89043 22.3981C8.99503 22.3981 9.89397 21.4991 9.89397 20.3945C9.89397 19.2884 8.99503 18.3894 7.89043 18.3894ZM19.9179 13.4024H24.746L22.8656 8.8033C22.6116 8.18479 22.4714 8.07262 22.286 8.07262H19.9179V13.4024Z" fill="white"/>
</g>
<defs>
<clipPath id="clip0_160_9638">
<rect width="28.1399" height="28.1399" fill="white" transform="translate(0.54541 0.443237)"/>
</clipPath>
</defs>
</svg>
