<svg width="29" height="29" viewBox="0 0 29 29" fill="none" xmlns="http://www.w3.org/2000/svg">
<g clip-path="url(#clip0_160_9762)">
<path d="M8.27196 10.0721H2.30812C2.07937 10.0721 1.89404 10.2609 1.89404 10.4937V25.1782C1.89404 25.411 2.07943 25.5998 2.30812 25.5998H26.3089C26.5377 25.5998 26.723 25.411 26.723 25.1782V10.4937C26.723 10.2609 26.5376 10.0721 26.3089 10.0721H9.92837C9.69962 10.0721 9.5143 10.2609 9.5143 10.4937C9.5143 10.7266 9.69968 10.9153 9.92837 10.9153H25.8949V24.7565H2.72219V10.9153H8.27196C8.50071 10.9153 8.68604 10.7266 8.68604 10.4937C8.68609 10.2609 8.50071 10.0721 8.27196 10.0721Z" fill="#737373"/>
<path d="M26.8603 8.39053H25.0373L16.0029 3.84714C16.0235 3.74283 16.0344 3.63505 16.0344 3.52469C16.0344 2.62206 15.3132 1.8877 14.4267 1.8877C13.5402 1.8877 12.819 2.62206 12.819 3.52469C12.819 3.63505 12.8299 3.74288 12.8504 3.84714L3.81605 8.39053H1.75712C0.919898 8.39053 0.23877 9.08404 0.23877 9.93648V25.7354C0.23877 26.5878 0.919898 27.2814 1.75712 27.2814H19.3907C19.6194 27.2814 19.8047 27.0926 19.8047 26.8598C19.8047 26.6269 19.6194 26.4381 19.3907 26.4381H1.75712C1.37657 26.4381 1.06697 26.1229 1.06697 25.7355V9.93648C1.06697 9.54902 1.37657 9.23379 1.75712 9.23379H17.5712C17.7999 9.23379 17.9853 9.04504 17.9853 8.81219C17.9853 8.57934 17.7999 8.39059 17.5712 8.39059H5.68626L13.2183 4.60271C13.5132 4.94502 13.9454 5.16175 14.4267 5.16175C14.908 5.16175 15.3403 4.94502 15.6351 4.60271L23.1672 8.39059H19.2276C18.9989 8.39059 18.8135 8.57934 18.8135 8.81219C18.8135 9.04504 18.9989 9.23379 19.2276 9.23379H26.8603C27.2409 9.23379 27.5505 9.54902 27.5505 9.93648V25.7354C27.5505 26.1229 27.2409 26.4381 26.8603 26.4381H21.047C20.8183 26.4381 20.6329 26.6268 20.6329 26.8597C20.6329 27.0925 20.8183 27.2813 21.047 27.2813H26.8603C27.6975 27.2813 28.3787 26.5878 28.3787 25.7353V9.93648C28.3787 9.08404 27.6976 8.39053 26.8603 8.39053ZM14.4267 4.31849C13.9969 4.31849 13.6472 3.96241 13.6472 3.52475C13.6472 3.08709 13.9969 2.73101 14.4267 2.73101C14.8566 2.73101 15.2063 3.08709 15.2063 3.52475C15.2062 3.96241 14.8565 4.31849 14.4267 4.31849Z" fill="#737373"/>
<path d="M7.29248 15.6946C7.52117 15.6946 7.70656 15.5059 7.70656 15.273C7.70656 15.0402 7.52117 14.8514 7.29248 14.8514H5.51417C5.28543 14.8514 5.1001 15.0402 5.1001 15.273V19.781C5.1001 19.7815 5.10015 19.7819 5.10015 19.7823C5.10015 19.7828 5.1001 19.7831 5.1001 19.7836C5.1001 20.0164 5.28548 20.2052 5.51417 20.2052H7.29248C7.52117 20.2052 7.70656 20.0164 7.70656 19.7836C7.70656 19.5507 7.52117 19.362 7.29248 19.362H5.92825V17.9499H7.29248C7.52117 17.9499 7.70656 17.7612 7.70656 17.5283C7.70656 17.2955 7.52117 17.1067 7.29248 17.1067H5.92825V15.6948H7.29248V15.6946Z" fill="#737373"/>
<path d="M13.105 20.2052H14.8834C15.112 20.2052 15.2974 20.0165 15.2974 19.7836C15.2974 19.5508 15.112 19.362 14.8834 19.362H13.5191V17.95H14.8834C15.112 17.95 15.2974 17.7612 15.2974 17.5284C15.2974 17.2955 15.112 17.1068 14.8834 17.1068H13.5191V15.6948H14.8834C15.112 15.6948 15.2974 15.506 15.2974 15.2732C15.2974 15.0403 15.112 14.8516 14.8834 14.8516H13.105C12.8763 14.8516 12.6909 15.0403 12.6909 15.2732V19.7811C12.6909 19.7816 12.691 19.782 12.691 19.7824C12.691 19.7829 12.6909 19.7833 12.6909 19.7837C12.6909 20.0164 12.8762 20.2052 13.105 20.2052Z" fill="#737373"/>
<path d="M8.23136 15.3862L9.39214 19.6275C9.48667 19.973 9.78692 20.2052 10.1392 20.2052C10.4915 20.2052 10.7917 19.973 10.8862 19.6275L12.047 15.3862C12.1084 15.1619 11.9796 14.9294 11.7593 14.8669C11.5388 14.8044 11.3106 14.9356 11.2492 15.1599L10.1392 19.2158L9.02906 15.1599C8.96773 14.9356 8.73959 14.8045 8.51897 14.8669C8.29886 14.9294 8.16997 15.1619 8.23136 15.3862Z" fill="#737373"/>
<path d="M16.9917 19.781V16.8835L18.7068 19.9901C18.8037 20.1655 19.0155 20.2476 19.2025 20.1822C19.3678 20.1244 19.4819 19.9614 19.4819 19.7835V15.273C19.4819 15.0401 19.2965 14.8514 19.0678 14.8514C18.8391 14.8514 18.6537 15.0401 18.6537 15.273V18.173L16.9386 15.0664C16.8463 14.8992 16.6548 14.8166 16.4728 14.8651C16.2906 14.9137 16.1636 15.0812 16.1636 15.273V19.781C16.1636 20.0138 16.349 20.2026 16.5777 20.2026C16.8064 20.2026 16.9917 20.0138 16.9917 19.781Z" fill="#737373"/>
<path d="M21.9095 20.2052C22.1383 20.2052 22.3236 20.0165 22.3236 19.7836V15.6973H23.3391C23.5678 15.6973 23.7531 15.5086 23.7531 15.2757C23.7531 15.0429 23.5677 14.8541 23.3391 14.8541H20.48C20.2512 14.8541 20.0659 15.0429 20.0659 15.2757C20.0659 15.5086 20.2513 15.6973 20.48 15.6973H21.4954V19.7836C21.4954 20.0165 21.6808 20.2052 21.9095 20.2052Z" fill="#737373"/>
</g>
<defs>
<clipPath id="clip0_160_9762">
<rect width="28.1399" height="28.6515" fill="white" transform="translate(0.237793 0.258789)"/>
</clipPath>
</defs>
</svg>
