<svg width="36" height="37" viewBox="0 0 36 37" fill="none" xmlns="http://www.w3.org/2000/svg">
<g clip-path="url(#clip0_160_9709)">
<g clip-path="url(#clip1_160_9709)">
<path fill-rule="evenodd" clip-rule="evenodd" d="M28.6593 13.3644H23.2189V14.7881C23.2189 15.139 22.9946 15.4246 22.7188 15.4246H8.27651C8.00075 15.4246 7.77641 15.139 7.77641 14.7861C7.77641 14.4351 8.00075 14.1496 8.27651 14.1496H22.2172V12.7279V4.66953V3.4699H13.1654C12.8896 3.4699 12.6653 3.18635 12.6653 2.8334C12.6653 2.48243 12.8896 2.1969 13.1654 2.1969H22.7173C22.9946 2.1969 23.2189 2.48243 23.2189 2.8334V4.03303H25.587C26.5389 4.03303 26.8988 5.15334 27.092 5.75415L29.1906 12.2857L31.7347 14.1535C31.889 14.2686 31.9856 14.4787 31.9856 14.7048V20.9904C31.9856 21.3414 31.7612 21.6269 31.4839 21.6269H29.0706C28.8323 23.4333 27.5952 24.8134 26.1089 24.8134C24.6226 24.8134 23.3841 23.4333 23.1457 21.6269H14.1531C13.9148 23.4333 12.6778 24.8134 11.1915 24.8134C9.7036 24.8134 8.46658 23.4333 8.22821 21.6269H7.79666C7.51934 21.6269 7.295 21.3414 7.295 20.9904C7.295 20.6375 7.51934 20.352 7.79666 20.352H8.22821C8.46658 18.5456 9.7036 17.1655 11.1915 17.1655C12.6778 17.1655 13.9148 18.5456 14.1531 20.352H23.1457C23.3841 18.5456 24.6226 17.1655 26.1089 17.1655C27.5952 17.1655 28.8323 18.5456 29.0706 20.352H30.9838V15.0736L28.6593 13.3644ZM12.0437 12.4205H5.63265C5.35689 12.4205 5.13254 12.135 5.13254 11.784C5.13254 11.4311 5.35689 11.1455 5.63265 11.1455H12.0437C12.321 11.1455 12.5438 11.4311 12.5438 11.784C12.5438 12.135 12.321 12.4205 12.0437 12.4205ZM10.7615 9.56521H4.35045C4.07313 9.56521 3.85034 9.27968 3.85034 8.92673C3.85034 8.57576 4.07313 8.29023 4.35045 8.29023H10.7615C11.0372 8.29023 11.2616 8.57576 11.2616 8.92673C11.2616 9.27968 11.0372 9.56521 10.7615 9.56521ZM13.1654 6.70791H6.75438C6.47862 6.70791 6.25428 6.42436 6.25428 6.07141C6.25428 5.72044 6.47862 5.43491 6.75438 5.43491H13.1654C13.4427 5.43491 13.6655 5.72044 13.6655 6.07141C13.6655 6.42436 13.4427 6.70791 13.1654 6.70791ZM26.1089 18.4385C25.0028 18.4385 24.1038 19.5826 24.1038 20.9904C24.1038 22.3963 25.0028 23.5404 26.1089 23.5404C27.2135 23.5404 28.1125 22.3963 28.1125 20.9904C28.1125 19.5826 27.2135 18.4385 26.1089 18.4385ZM11.1915 18.4385C10.0869 18.4385 9.18792 19.5826 9.18636 20.9865V20.9904V20.9924C9.18792 22.3983 10.0869 23.5404 11.1915 23.5404C12.2961 23.5404 13.195 22.3963 13.195 20.9904C13.195 19.5826 12.2961 18.4385 11.1915 18.4385ZM23.2189 12.0914H28.047L26.1666 6.23797C25.9126 5.45077 25.7724 5.30801 25.587 5.30801H23.2189V12.0914Z" fill="#066595"/>
</g>
</g>
<defs>
<clipPath id="clip0_160_9709">
<rect width="35.8144" height="35.8144" fill="white" transform="translate(0.157471 0.714233)"/>
</clipPath>
<clipPath id="clip1_160_9709">
<rect width="28.1399" height="35.8144" fill="white" transform="translate(3.84668 -4.4021)"/>
</clipPath>
</defs>
</svg>
