<svg width="27" height="27" viewBox="0 0 27 27" fill="none" xmlns="http://www.w3.org/2000/svg">
<path d="M26.0098 17.9101H21.9955L23.1871 17.4C23.3848 17.3146 23.5586 17.1822 23.6935 17.0142C23.8283 16.8463 23.9201 16.6479 23.9609 16.4364C24.0016 16.225 23.99 16.0067 23.9272 15.8007C23.8644 15.5947 23.7522 15.4071 23.6004 15.2544L22.9496 14.6036C22.7967 14.4518 22.6091 14.3395 22.403 14.2767C22.1968 14.2139 21.9785 14.2023 21.7669 14.2431C21.6835 14.2601 21.6024 14.2867 21.525 14.3222C21.4925 14.2426 21.4528 14.166 21.4063 14.0936C21.286 13.9149 21.1237 13.7686 20.9335 13.6674C20.7434 13.5662 20.5313 13.5132 20.3159 13.5132H19.3926C19.1772 13.5132 18.9651 13.5662 18.7749 13.6674C18.5848 13.7686 18.4224 13.9149 18.3021 14.0936C18.2557 14.166 18.2159 14.2426 18.1834 14.3222C18.1061 14.2867 18.025 14.2601 17.9416 14.2431C17.8472 14.227 17.7515 14.2197 17.6558 14.2211V12.6338H18.9749C19.0915 12.6338 19.2033 12.5875 19.2858 12.5051C19.3682 12.4226 19.4145 12.3108 19.4145 12.1942V9.55604C19.4145 9.43943 19.3682 9.32759 19.2858 9.24513C19.2033 9.16268 19.0915 9.11635 18.9749 9.11635H14.4329L16.5434 8.71624C16.8879 8.65041 17.2117 8.50318 17.4878 8.28682C17.7639 8.07047 17.9842 7.79125 18.1305 7.47246C18.2768 7.15366 18.3447 6.80452 18.3287 6.45413C18.3127 6.10375 18.2131 5.76227 18.0383 5.45816L17.4404 4.42051C17.2651 4.11548 17.019 3.85713 16.7228 3.66733C16.4266 3.47753 16.0891 3.36185 15.7388 3.33008C15.3893 3.29535 15.0367 3.34603 14.7112 3.47777C14.3857 3.60951 14.097 3.81835 13.8701 4.08634L10.9242 7.5071L12.4147 3.24654C12.5306 2.91516 12.5654 2.56084 12.5162 2.21325C12.4671 1.86565 12.3354 1.53488 12.1322 1.24861C11.929 0.962338 11.6602 0.728887 11.3483 0.567787C11.0364 0.406688 10.6905 0.322625 10.3394 0.322632H9.14348C8.79243 0.322625 8.44648 0.406688 8.13457 0.567787C7.82266 0.728887 7.55387 0.962338 7.35068 1.24861C7.14749 1.53488 7.01582 1.86565 6.96666 2.21325C6.91751 2.56084 6.95231 2.91516 7.06816 3.24654L8.5587 7.5071L5.6128 4.08634C5.38588 3.81835 5.09724 3.60951 4.77173 3.47777C4.44622 3.34603 4.09357 3.29535 3.74413 3.33008C3.39379 3.36185 3.05626 3.47753 2.76007 3.66733C2.46389 3.85713 2.21778 4.11548 2.04255 4.42051L1.44458 5.45816C1.2698 5.76227 1.17025 6.10375 1.15421 6.45413C1.13818 6.80452 1.20614 7.15366 1.35241 7.47246C1.49869 7.79125 1.71905 8.07047 1.99512 8.28682C2.2712 8.50318 2.59499 8.65041 2.93951 8.71624L5.05 9.11635H0.508045C0.391433 9.11635 0.279598 9.16268 0.19714 9.24513C0.114683 9.32759 0.0683594 9.43943 0.0683594 9.55604V12.1942C0.0683594 12.3108 0.114683 12.4226 0.19714 12.5051C0.279598 12.5875 0.391433 12.6338 0.508045 12.6338H1.8271V26.2641C1.8271 26.3807 1.87343 26.4926 1.95588 26.575C2.03834 26.6575 2.15018 26.7038 2.26679 26.7038H25.1305C25.2471 26.7038 25.3589 26.6575 25.4414 26.575C25.5238 26.4926 25.5701 26.3807 25.5701 26.2641V21.4276H26.0098C26.1264 21.4276 26.2383 21.3812 26.3207 21.2988C26.4032 21.2163 26.4495 21.1045 26.4495 20.9879V18.3498C26.4495 18.2331 26.4032 18.1213 26.3207 18.0389C26.2383 17.9564 26.1264 17.9101 26.0098 17.9101ZM19.032 14.586C19.071 14.5261 19.1245 14.477 19.1875 14.4431C19.2505 14.4093 19.3211 14.3919 19.3926 14.3926H20.3159C20.3874 14.3932 20.4576 14.4113 20.5205 14.4452C20.5834 14.4791 20.6371 14.5278 20.677 14.5871C20.7168 14.6465 20.7416 14.7146 20.7491 14.7857C20.7567 14.8567 20.7469 14.9286 20.7204 14.995L19.8542 17.167L18.988 14.995C18.9602 14.9286 18.9497 14.8563 18.9574 14.7848C18.9651 14.7133 18.9907 14.6449 19.032 14.586ZM18.5352 9.99572V11.7545H11.5002V9.99572H18.5352ZM7.89917 2.95635C7.82873 2.75759 7.80713 2.54481 7.83618 2.33595C7.86522 2.12709 7.94407 1.92827 8.06606 1.75627C8.18806 1.58427 8.34962 1.44413 8.53714 1.34767C8.72465 1.2512 8.93261 1.20124 9.14348 1.202H10.3394C10.5503 1.20124 10.7583 1.2512 10.9458 1.34767C11.1333 1.44413 11.2948 1.58427 11.4168 1.75627C11.5388 1.92827 11.6177 2.12709 11.6467 2.33595C11.6758 2.54481 11.6542 2.75759 11.5837 2.95635L9.74145 8.22379L7.89917 2.95635ZM7.98271 25.8244H2.70648V12.6338H7.98271V25.8244ZM7.98271 11.7545H0.947731V9.99572H7.98271V11.7545ZM3.10659 7.85445C2.89971 7.81483 2.70526 7.72642 2.53939 7.59658C2.37353 7.46673 2.24103 7.2992 2.15289 7.10788C2.06476 6.91656 2.02353 6.70698 2.03263 6.49653C2.04173 6.28608 2.10091 6.08084 2.20523 5.89785L2.8076 4.86019C2.91184 4.67745 3.05857 4.52251 3.23536 4.40847C3.41215 4.29444 3.61381 4.22466 3.82328 4.20506C3.86725 4.20066 3.91122 4.20066 3.95079 4.20066C4.14038 4.19983 4.32787 4.24031 4.50024 4.31928C4.6726 4.39825 4.8257 4.51381 4.94887 4.65794L8.58947 8.89211L3.10659 7.85445ZM10.6208 25.8244H8.86208V12.6338H10.6208V25.8244ZM10.6208 11.7545H8.86208V9.99572H10.6208V11.7545ZM14.534 4.65794C14.6572 4.51381 14.8103 4.39825 14.9827 4.31928C15.155 4.24031 15.3425 4.19983 15.5321 4.20066C15.5717 4.20066 15.6157 4.20066 15.6596 4.20506C15.8691 4.22466 16.0708 4.29444 16.2475 4.40847C16.4243 4.52251 16.5711 4.67745 16.6753 4.86019L17.2777 5.89785C17.382 6.08084 17.4412 6.28608 17.4503 6.49653C17.4594 6.70698 17.4181 6.91656 17.33 7.10788C17.2419 7.2992 17.1094 7.46673 16.9435 7.59658C16.7776 7.72642 16.5832 7.81483 16.3763 7.85445L10.8934 8.89211L14.534 4.65794ZM14.1383 25.8244H11.5002V12.6338H16.7764V14.5904C16.772 14.5948 16.7632 14.5992 16.7588 14.6036L16.1081 15.2544C15.9563 15.4071 15.8441 15.5947 15.7812 15.8007C15.7184 16.0067 15.7069 16.225 15.7476 16.4364C15.7883 16.6479 15.8801 16.8463 16.015 17.0142C16.1499 17.1822 16.3237 17.3146 16.5214 17.4L17.713 17.9101H13.6986C13.582 17.9101 13.4702 17.9564 13.3877 18.0389C13.3053 18.1213 13.2589 18.2331 13.2589 18.3498V20.9879C13.2589 21.1045 13.3053 21.2163 13.3877 21.2988C13.4702 21.3812 13.582 21.4276 13.6986 21.4276H14.1383V25.8244ZM18.5352 25.8244H15.0177V21.4276H18.5352V25.8244ZM18.5352 20.5482H14.1383V18.7894H18.5352V20.5482ZM16.8688 16.591C16.8026 16.5628 16.7443 16.5188 16.6991 16.4629C16.6538 16.4069 16.623 16.3407 16.6093 16.27C16.5956 16.1997 16.5997 16.1271 16.6212 16.0587C16.6427 15.9904 16.6809 15.9285 16.7325 15.8787L17.3832 15.228C17.423 15.1865 17.4708 15.1534 17.5237 15.1308C17.5766 15.1081 17.6335 15.0963 17.691 15.0961C17.719 15.0968 17.7469 15.0998 17.7745 15.1049C17.8452 15.1186 17.9114 15.1494 17.9673 15.1946C18.0233 15.2398 18.0673 15.2981 18.0955 15.3643L19.0188 17.5144L16.8688 16.591ZM20.2939 25.8244H19.4145V21.4276H20.2939V25.8244ZM20.2939 20.5482H19.4145V18.7894H20.2939V20.5482ZM21.613 15.3643C21.6412 15.2981 21.6852 15.2398 21.7411 15.1946C21.7971 15.1494 21.8633 15.1186 21.9339 15.1049C21.9615 15.0998 21.9895 15.0968 22.0175 15.0961C22.075 15.0963 22.1319 15.1081 22.1848 15.1308C22.2376 15.1534 22.2854 15.1865 22.3253 15.228L22.976 15.8787C23.0275 15.9285 23.0658 15.9904 23.0873 16.0587C23.1088 16.1271 23.1129 16.1997 23.0991 16.27C23.0854 16.3407 23.0546 16.4069 23.0094 16.4629C22.9642 16.5188 22.9059 16.5628 22.8397 16.591L20.6896 17.5144L21.613 15.3643ZM24.6908 25.8244H21.1733V21.4276H24.6908V25.8244ZM25.5701 20.5482H21.1733V18.7894H25.5701V20.5482Z" fill="white"/>
</svg>
