<svg width="24" height="29" viewBox="0 0 24 29" fill="none" xmlns="http://www.w3.org/2000/svg">
<path d="M11.9278 6.83972C12.1782 6.83972 12.3812 6.63671 12.3812 6.38629C12.3812 6.13587 12.1782 5.93286 11.9278 5.93286C11.6774 5.93286 11.4744 6.13587 11.4744 6.38629C11.4744 6.63671 11.6774 6.83972 11.9278 6.83972Z" fill="white"/>
<path d="M16.0057 7.74572C16.2561 7.74572 16.4591 7.54272 16.4591 7.2923C16.4591 7.04187 16.2561 6.83887 16.0057 6.83887C15.7553 6.83887 15.5522 7.04187 15.5522 7.2923C15.5522 7.54272 15.7553 7.74572 16.0057 7.74572Z" fill="white"/>
<path d="M7.8504 7.7456C8.10082 7.7456 8.30383 7.54259 8.30383 7.29217C8.30383 7.04175 8.10082 6.83875 7.8504 6.83875C7.59998 6.83875 7.39697 7.04175 7.39697 7.29217C7.39697 7.54259 7.59998 7.7456 7.8504 7.7456Z" fill="white"/>
<path d="M23.7053 12.7279C23.7053 11.9106 23.3447 11.1522 22.7258 10.6387C22.7746 10.4335 22.7993 10.223 22.7993 10.0099C22.7993 9.23064 22.4715 8.50642 21.9056 7.99567C22.1852 7.52339 22.3463 6.97318 22.3463 6.38581V6.01444L21.1151 5.76817C20.754 5.69595 20.3904 5.67022 20.0304 5.68853C20.172 4.80432 20.0217 3.91879 19.5907 3.18182L19.3479 2.76687L18.8722 2.76187C18.1793 2.7545 17.4936 2.97347 16.898 3.37369C16.854 2.82018 16.6935 2.29096 16.4197 1.82286L16.177 1.4078L15.7011 1.4028C15.0237 1.39576 14.3486 1.60434 13.7545 1.99665C13.43 1.42396 12.9381 0.948601 12.321 0.640052L11.9271 0.443237L11.5332 0.640162C10.9162 0.948656 10.4243 1.42396 10.0998 1.99665C9.50605 1.60428 8.8319 1.39565 8.15302 1.40291L7.67739 1.40791L7.43463 1.82292C7.16076 2.29107 7.00022 2.8204 6.95625 3.37396C6.3701 2.98012 5.69661 2.76181 5.0151 2.76181C5.0041 2.76181 4.99295 2.76187 4.98196 2.76198L4.50632 2.76698L4.26356 3.18199C3.83245 3.91879 3.68235 4.80437 3.82382 5.68858C3.46383 5.67017 3.10021 5.69595 2.73912 5.76817L1.50794 6.01444V6.38581C1.50794 6.97318 1.66903 7.52345 1.94856 7.99567C1.38279 8.50636 1.05495 9.23064 1.05495 10.0099C1.05495 10.223 1.07963 10.4335 1.12844 10.6387C0.509578 11.1522 0.148926 11.9105 0.148926 12.7279C0.148926 13.3657 0.376738 13.9851 0.782623 14.4713C0.663853 14.7812 0.601912 15.1128 0.601912 15.4459C0.601912 16.617 1.34394 17.635 2.41831 18.0105C2.4154 18.0617 2.41397 18.1129 2.41397 18.164C2.41397 19.5447 3.44893 20.6875 4.78377 20.8591L1.74927 28.5831H4.98773L7.30207 22.6921C7.33362 22.6933 7.36527 22.694 7.39704 22.694C7.73796 22.694 8.07449 22.63 8.38903 22.5067C8.89714 23.1902 9.69819 23.6001 10.5681 23.6001V28.5831H13.2861V23.6001C14.156 23.6001 14.9572 23.1902 15.4652 22.5067C15.7797 22.63 16.1162 22.694 16.4572 22.694C16.489 22.694 16.5206 22.6933 16.5522 22.6921L18.8665 28.5831H22.105L19.0705 20.8591C20.4053 20.6875 21.4403 19.5447 21.4403 18.164C21.4403 18.1129 21.4388 18.0616 21.4359 18.0105C22.5103 17.6351 23.2523 16.6169 23.2523 15.4459C23.2523 15.1127 23.1904 14.7811 23.0716 14.4713C23.4775 13.9851 23.7053 13.3657 23.7053 12.7279ZM20.9374 6.65661L21.4108 6.7513C21.2355 7.8271 20.2998 8.65086 19.1752 8.65086H18.6675C18.6715 8.53527 18.6659 8.41876 18.6486 8.30241C19.0401 7.89581 19.2277 7.33086 19.1619 6.76719C19.7321 6.57592 20.3391 6.53696 20.9374 6.65661ZM7.70053 17.2747C7.50311 16.7085 7.12009 16.226 6.62781 15.899H8.99739L8.39002 17.445C8.17094 17.3592 7.93956 17.3013 7.70053 17.2747ZM9.97085 15.8989H10.5681V18.164C10.2272 18.164 9.89072 18.228 9.57612 18.3513C9.45796 18.1923 9.32352 18.0486 9.17639 17.9209L9.97085 15.8989ZM11.4741 15.8989H12.3802V18.319C12.2237 18.3743 12.072 18.4434 11.9272 18.5275C11.7824 18.4434 11.6306 18.3743 11.4742 18.319V15.8989H11.4741ZM13.2861 15.8989H13.8834L14.6778 17.9209C14.5307 18.0485 14.3963 18.1923 14.2781 18.3513C13.9635 18.228 13.6271 18.164 13.2861 18.164L13.2861 15.8989ZM15.4643 17.445L14.8569 15.899H17.2265C16.7342 16.226 16.3512 16.7085 16.1538 17.2747C15.9146 17.3013 15.6833 17.3592 15.4643 17.445ZM17.855 14.9929H5.99922C5.94476 14.6737 5.83385 14.3666 5.67243 14.0869H18.1818C18.0205 14.3666 17.9095 14.6737 17.855 14.9929ZM18.308 13.1809H5.54624C5.57157 13.0314 5.58504 12.8799 5.58504 12.7279C5.58504 12.5148 5.56036 12.3043 5.51156 12.099C6.03759 11.6625 6.3762 11.0488 6.46611 10.3726C6.91998 10.5223 7.41622 10.4882 7.85003 10.2684C8.10807 10.3992 8.38837 10.4645 8.66861 10.4645C9.05037 10.4645 9.43218 10.3432 9.75804 10.1007C10.0122 9.91149 10.209 9.66549 10.3382 9.38546C10.8436 9.62311 11.4269 9.61575 11.9271 9.36238C12.1852 9.49313 12.4654 9.55848 12.7457 9.55848C13.0085 9.55848 13.2709 9.49951 13.5155 9.38458C13.6447 9.66494 13.8417 9.91133 14.0962 10.1007C14.6611 10.5212 15.3945 10.5772 16.0041 10.2684C16.2622 10.3991 16.5425 10.4645 16.8227 10.4645C17.0135 10.4645 17.2043 10.4342 17.3882 10.3735C17.4784 11.0494 17.8168 11.6627 18.3427 12.0989C18.2939 12.3042 18.2692 12.5147 18.2692 12.7278C18.2692 12.8799 18.2828 13.0315 18.308 13.1809ZM6.95708 5.69672C7.08409 5.296 7.44293 5.0268 7.85008 5.0268C8.21694 5.0268 8.63382 5.31655 8.80211 5.66929C8.66367 6.29441 8.84669 6.94361 9.28274 7.39632C9.21124 7.8752 9.32534 8.3589 9.59272 8.7499C9.55139 9.00063 9.41971 9.22311 9.21712 9.37397C8.88906 9.61811 8.44849 9.61828 8.12065 9.37408L7.85003 9.1726L7.57946 9.37408C7.25178 9.61828 6.8111 9.61817 6.48304 9.37403C6.14806 9.12467 6.0095 8.68449 6.13816 8.27877L6.23583 7.97105L5.97685 7.77835C5.64203 7.52922 5.50359 7.08904 5.63231 6.6831C5.75943 6.28216 6.11816 6.01291 6.52503 6.01291C6.52509 6.01291 6.52514 6.01291 6.5252 6.01291L6.85683 6.01296L6.95708 5.69672ZM10.6022 5.10682C10.6022 5.10682 10.6022 5.10682 10.6023 5.10682L10.9339 5.10688L11.0342 4.79069C11.1612 4.38997 11.52 4.12077 11.9272 4.12077C12.3343 4.12077 12.6931 4.38997 12.8202 4.79069L12.9204 5.10688L13.2521 5.10682C13.2521 5.10682 13.2522 5.10682 13.2522 5.10682C13.6591 5.10682 14.0178 5.37613 14.145 5.77696C14.2737 6.1829 14.1352 6.62308 13.8004 6.87222L13.5414 7.06491L13.6391 7.37263C13.7678 7.77835 13.6293 8.21853 13.2942 8.46784C12.9663 8.71203 12.5256 8.71208 12.1978 8.46795L11.9271 8.26657L11.6566 8.46806C11.3289 8.71225 10.8883 8.71219 10.5601 8.46795C10.2252 8.21864 10.0866 7.77846 10.2153 7.37274L10.313 7.06502L10.054 6.87233C9.71919 6.62319 9.58074 6.18301 9.70946 5.77701C9.83653 5.37613 10.1953 5.10682 10.6022 5.10682ZM16.0042 5.02674C16.4113 5.02674 16.7701 5.29594 16.8972 5.69666L16.9974 6.01285L17.3291 6.01279C17.3291 6.01279 17.3292 6.01279 17.3292 6.01279C17.7361 6.01279 18.0948 6.2821 18.2219 6.68299C18.3507 7.08893 18.2122 7.52911 17.8774 7.77824L17.6184 7.97094L17.716 8.27872C17.8447 8.68444 17.7062 9.12462 17.3713 9.37392C17.0433 9.61806 16.6027 9.61822 16.2749 9.37403L16.0042 9.17254L15.7336 9.37403C15.4059 9.61822 14.9652 9.61811 14.6372 9.37397C14.4345 9.22311 14.3029 9.00063 14.2615 8.7499C14.5289 8.3589 14.643 7.87525 14.5715 7.39632C15.0076 6.94356 15.1906 6.29436 15.0521 5.66929C15.2204 5.3165 15.6373 5.02674 16.0042 5.02674ZM19.0731 5.84615C18.9972 5.86759 18.922 5.89172 18.8471 5.91744C18.5673 5.50408 18.1349 5.21927 17.6426 5.13386C17.496 4.84521 17.2802 4.60564 17.0211 4.43152C17.5342 3.94946 18.177 3.67163 18.825 3.66778C19.1838 4.29961 19.2702 5.08022 19.0731 5.84615ZM15.654 2.30877C15.9537 2.83667 16.0644 3.47136 15.9742 4.12149C15.4631 4.13116 14.9469 4.38788 14.5813 4.77634C14.4438 4.6307 14.2843 4.50896 14.1087 4.41542C14.1642 4.1709 14.1922 3.92077 14.1922 3.66773C14.1922 3.39216 14.1592 3.12257 14.0965 2.86332C14.5666 2.50674 15.1097 2.31196 15.654 2.30877ZM11.9271 1.45622C12.7658 1.88074 13.2861 2.72697 13.2861 3.66773C13.2861 3.7173 13.2842 3.76655 13.2812 3.81568C12.9401 3.44047 12.4547 3.21474 11.9271 3.21474C11.3995 3.21474 10.9141 3.44047 10.5731 3.81574C10.5701 3.7666 10.5681 3.71725 10.5681 3.66778C10.5681 2.72697 11.0884 1.88074 11.9271 1.45622ZM8.20029 2.30877C8.74451 2.31201 9.28775 2.50685 9.75777 2.86332C9.695 3.12263 9.66208 3.39216 9.66208 3.66773C9.66208 3.92077 9.69011 4.1709 9.74557 4.41547C9.57002 4.50901 9.41053 4.63075 9.27302 4.77634C8.90731 4.38777 8.39117 4.13116 7.88009 4.12143C7.78979 3.47136 7.90054 2.83672 8.20029 2.30877ZM5.02922 3.66778C5.67726 3.67169 6.32008 3.94946 6.8332 4.43152C6.574 4.60558 6.35834 4.84515 6.21165 5.13386C5.71942 5.21944 5.28699 5.50413 5.00718 5.91744C4.93227 5.89172 4.85697 5.86764 4.78107 5.84615C4.58404 5.08022 4.67049 4.29956 5.02922 3.66778ZM2.9168 6.65661C3.51516 6.5369 4.12209 6.57592 4.69237 6.76713C4.62652 7.33086 4.81405 7.89581 5.2057 8.30235C5.18833 8.4187 5.18273 8.53533 5.18674 8.6508H4.67901C3.55446 8.6508 2.6187 7.82699 2.44348 6.75125L2.9168 6.65661ZM4.3703 27.6771H3.07866L5.38663 21.8024C5.66622 22.109 6.01384 22.3502 6.40258 22.504L4.3703 27.6771ZM12.3801 27.6771H11.4741V23.445C11.6306 23.3897 11.7822 23.3206 11.9271 23.2366C12.0719 23.3206 12.2236 23.3897 12.3801 23.445V27.6771H12.3801ZM19.484 27.6771L17.4517 22.504C17.8404 22.3503 18.188 22.109 18.4677 21.8024L20.7756 27.6771H19.484ZM22.2245 14.0511L21.9707 14.2885L22.1342 14.5951C22.2749 14.8591 22.3463 15.1453 22.3463 15.446C22.3463 16.3252 21.7188 17.0752 20.8543 17.2292L20.39 17.3118L20.4914 17.7726C20.5198 17.9018 20.5343 18.0335 20.5343 18.164C20.5343 19.1632 19.7214 19.9761 18.7225 19.9761L18.308 19.9681L18.2331 20.338C18.063 21.1783 17.3161 21.7881 16.4573 21.7881C16.1304 21.7881 15.8099 21.6999 15.5304 21.5331L15.1173 21.2865L14.896 21.7138C14.5827 22.3186 13.9659 22.6942 13.2863 22.6942C12.8906 22.6942 12.5147 22.569 12.1993 22.332L11.9271 22.1275L11.655 22.3319C11.3396 22.5688 10.9637 22.694 10.5681 22.694C9.88836 22.694 9.27153 22.3184 8.95831 21.7136L8.73704 21.2863L8.3239 21.5329C8.04437 21.6997 7.72389 21.7879 7.39704 21.7879C6.53811 21.7879 5.79131 21.1781 5.6212 20.3379L5.54635 19.9679L5.16893 19.9749L5.132 19.976C4.13281 19.976 3.31994 19.1631 3.31994 18.1639C3.31994 18.0334 3.3344 17.9017 3.36281 17.7725L3.46421 17.3117L2.99985 17.2291C2.13532 17.0752 1.50794 16.3252 1.50794 15.4459C1.50794 15.1452 1.57933 14.8589 1.72003 14.595L1.88349 14.2884L1.62973 14.051C1.25902 13.7043 1.05484 13.2344 1.05484 12.7278C1.05484 12.1042 1.3701 11.5319 1.89816 11.1969L2.21023 10.9989L2.07898 10.6534C2.00055 10.4474 1.96087 10.2309 1.96087 10.0098C1.96087 9.50863 2.16434 9.0413 2.51751 8.70312C3.08432 9.23212 3.84421 9.55683 4.6789 9.55683H5.45242C5.49243 9.62405 5.53645 9.68906 5.58493 9.75117V10.0098C5.58493 10.6335 5.26967 11.2058 4.74161 11.5407L4.42954 11.7388L4.56085 12.0843C4.63916 12.2903 4.67885 12.5068 4.67885 12.7279C4.67885 13.0285 4.60745 13.3148 4.46675 13.5788L4.3033 13.8854L4.55705 14.1227C4.92782 14.4695 5.132 14.9394 5.132 15.4459C5.132 15.5764 5.11754 15.708 5.08913 15.8373L4.98773 16.298L5.45209 16.3807C6.1768 16.5098 6.7618 17.081 6.90783 17.8019L6.98275 18.1719L7.36011 18.1649L7.39699 18.1638C8.07668 18.1638 8.69351 18.5395 9.00673 19.1443L9.228 19.5716L9.64114 19.3249C9.92067 19.1581 10.2411 19.07 10.568 19.07C10.9637 19.07 11.3395 19.1952 11.655 19.4322L11.9271 19.6365L12.1992 19.4322C12.5146 19.1952 12.8905 19.07 13.2861 19.07C13.613 19.07 13.9335 19.1581 14.213 19.3249L14.6261 19.5716L14.8474 19.1443C15.1607 18.5395 15.7775 18.1638 16.4569 18.1638L16.8714 18.1718L16.9463 17.8019C17.0923 17.0808 17.6773 16.5097 18.4021 16.3806L18.8664 16.298L18.765 15.8372C18.7366 15.708 18.7221 15.5763 18.7221 15.4458C18.7221 14.9393 18.9263 14.4694 19.297 14.1226L19.5507 13.8853L19.3873 13.5787C19.2466 13.3147 19.1752 13.0284 19.1752 12.7278C19.1752 12.5068 19.2149 12.2902 19.2932 12.0841L19.4245 11.7387L19.1124 11.5406C18.5846 11.2057 18.2693 10.6334 18.2693 10.0098V9.75106C18.3178 9.68896 18.3617 9.62394 18.4018 9.55677H19.1754C20.01 9.55677 20.7699 9.23207 21.3367 8.70307C21.6899 9.0413 21.8934 9.50857 21.8934 10.0098C21.8934 10.2308 21.8537 10.4474 21.7753 10.6534L21.6441 10.9989L21.9561 11.1969C22.4842 11.5319 22.7995 12.1042 22.7995 12.7278C22.7993 13.2345 22.5952 13.7043 22.2245 14.0511Z" fill="white"/>
<path d="M2.41485 13.1818C2.66527 13.1818 2.86828 12.9788 2.86828 12.7283C2.86828 12.4779 2.66527 12.2749 2.41485 12.2749C2.16443 12.2749 1.96143 12.4779 1.96143 12.7283C1.96143 12.9788 2.16443 13.1818 2.41485 13.1818Z" fill="white"/>
<path d="M3.77325 15.8999C4.02367 15.8999 4.22668 15.6969 4.22668 15.4465C4.22668 15.196 4.02367 14.993 3.77325 14.993C3.52283 14.993 3.31982 15.196 3.31982 15.4465C3.31982 15.6969 3.52283 15.8999 3.77325 15.8999Z" fill="white"/>
<path d="M4.67853 19.0709C4.92895 19.0709 5.13195 18.8679 5.13195 18.6175C5.13195 18.3671 4.92895 18.1641 4.67853 18.1641C4.4281 18.1641 4.2251 18.3671 4.2251 18.6175C4.2251 18.8679 4.4281 19.0709 4.67853 19.0709Z" fill="white"/>
<path d="M7.39825 19.9769C7.64867 19.9769 7.85168 19.7739 7.85168 19.5235C7.85168 19.2731 7.64867 19.0701 7.39825 19.0701C7.14783 19.0701 6.94482 19.2731 6.94482 19.5235C6.94482 19.7739 7.14783 19.9769 7.39825 19.9769Z" fill="white"/>
<path d="M10.5682 21.7888C10.8186 21.7888 11.0216 21.5858 11.0216 21.3354C11.0216 21.085 10.8186 20.882 10.5682 20.882C10.3178 20.882 10.1147 21.085 10.1147 21.3354C10.1147 21.5858 10.3178 21.7888 10.5682 21.7888Z" fill="white"/>
<path d="M13.2869 20.8829C13.5373 20.8829 13.7404 20.6799 13.7404 20.4295C13.7404 20.1791 13.5373 19.9761 13.2869 19.9761C13.0365 19.9761 12.8335 20.1791 12.8335 20.4295C12.8335 20.6799 13.0365 20.8829 13.2869 20.8829Z" fill="white"/>
<path d="M16.91 20.8829C17.1604 20.8829 17.3634 20.6799 17.3634 20.4295C17.3634 20.1791 17.1604 19.9761 16.91 19.9761C16.6595 19.9761 16.4565 20.1791 16.4565 20.4295C16.4565 20.6799 16.6595 20.8829 16.91 20.8829Z" fill="white"/>
<path d="M18.2693 18.1649C18.5198 18.1649 18.7228 17.9619 18.7228 17.7115C18.7228 17.4611 18.5198 17.2581 18.2693 17.2581C18.0189 17.2581 17.8159 17.4611 17.8159 17.7115C17.8159 17.9619 18.0189 18.1649 18.2693 18.1649Z" fill="white"/>
<path d="M20.9881 16.3529C21.2385 16.3529 21.4415 16.1499 21.4415 15.8995C21.4415 15.6491 21.2385 15.446 20.9881 15.446C20.7377 15.446 20.5347 15.6491 20.5347 15.8995C20.5347 16.1499 20.7377 16.3529 20.9881 16.3529Z" fill="white"/>
<path d="M20.5338 13.1818C20.7842 13.1818 20.9872 12.9788 20.9872 12.7283C20.9872 12.4779 20.7842 12.2749 20.5338 12.2749C20.2833 12.2749 20.0803 12.4779 20.0803 12.7283C20.0803 12.9788 20.2833 13.1818 20.5338 13.1818Z" fill="white"/>
</svg>
