<svg width="29" height="29" viewBox="0 0 29 29" fill="none" xmlns="http://www.w3.org/2000/svg">
<g clip-path="url(#clip0_160_9663)">
<path d="M5.94259 17.5915H22.6454C23.3726 17.5915 23.9644 16.9997 23.9644 16.2725V5.71823C23.9644 4.99099 23.3726 4.39917 22.6454 4.39917H5.94259C5.21535 4.39917 4.62354 4.99099 4.62354 5.71823V16.2725C4.62354 16.9997 5.21535 17.5915 5.94259 17.5915ZM22.6454 16.7121H5.94259C5.69989 16.7121 5.50291 16.5152 5.50291 16.2725V16.2716H13.8543C13.8543 16.5147 14.0508 16.7113 14.294 16.7113C14.5371 16.7113 14.7337 16.5147 14.7337 16.2716H23.0851V16.2725C23.0851 16.5152 22.8881 16.7121 22.6454 16.7121ZM5.94259 5.27854H22.6454C22.8881 5.27854 23.0851 5.47552 23.0851 5.71823V15.3922H5.50291V5.71823C5.50291 5.47552 5.69989 5.27854 5.94259 5.27854Z" fill="white"/>
<path d="M9.45752 21.5474C9.45752 21.7905 9.65406 21.9871 9.89721 21.9871H18.6918C18.935 21.9871 19.1315 21.7905 19.1315 21.5474V20.2292C19.1315 20.2156 19.1249 20.2037 19.1236 20.1905C19.1209 20.1611 19.1148 20.1329 19.106 20.1039C19.0972 20.0749 19.0866 20.0481 19.0726 20.0217C19.066 20.0098 19.0651 19.9966 19.0576 19.9852L18.1783 18.6661C18.1699 18.6542 18.1576 18.6477 18.1492 18.6371C18.1299 18.6129 18.1088 18.5923 18.085 18.5729C18.0631 18.5553 18.0415 18.5404 18.0173 18.5272C17.9931 18.514 17.9685 18.5043 17.9417 18.4964C17.9122 18.4872 17.8837 18.4815 17.8533 18.4784C17.8393 18.4775 17.8269 18.4705 17.8124 18.4705H10.7766C10.7621 18.4705 10.7498 18.4775 10.7357 18.4788C10.7049 18.4819 10.6759 18.4876 10.6464 18.4968C10.62 18.5052 10.5963 18.5144 10.5721 18.5272C10.5475 18.5404 10.5255 18.5558 10.5035 18.5738C10.4798 18.5927 10.4591 18.6129 10.4402 18.6367C10.431 18.6477 10.4187 18.6542 10.4108 18.6661L9.53139 19.9852C9.52347 19.9966 9.52259 20.0102 9.51644 20.0217C9.50237 20.0481 9.49137 20.0744 9.48302 20.1039C9.47379 20.1325 9.46807 20.1611 9.46543 20.1905C9.46411 20.2037 9.45752 20.2156 9.45752 20.2292V21.5474ZM11.0118 19.3498H17.5772L17.8705 19.7895H10.7185L11.0118 19.3498ZM18.2521 21.1077H10.3369V20.6689H18.2521V21.1077Z" fill="white"/>
<path d="M1.99554 6.59971C2.23848 6.59971 2.43565 6.40298 2.43565 6.1596C2.43565 5.91621 2.23848 5.71948 1.99554 5.71948H1.9907C1.74775 5.71948 1.55322 5.91621 1.55322 6.1596C1.55322 6.40298 1.75215 6.59971 1.99554 6.59971Z" fill="white"/>
<path d="M1.99554 9.23789C2.23848 9.23789 2.43565 9.04116 2.43565 8.79778C2.43565 8.5544 2.23848 8.35767 1.99554 8.35767H1.9907C1.74775 8.35767 1.55322 8.5544 1.55322 8.79778C1.55322 9.04116 1.75215 9.23789 1.99554 9.23789Z" fill="white"/>
<path d="M1.99554 11.876C2.23848 11.876 2.43565 11.6792 2.43565 11.4358C2.43565 11.1925 2.23848 10.9957 1.99554 10.9957H1.9907C1.74775 10.9957 1.55322 11.1925 1.55322 11.4358C1.55322 11.6792 1.75215 11.876 1.99554 11.876Z" fill="white"/>
<path d="M1.99554 14.514C2.23848 14.514 2.43565 14.3173 2.43565 14.0739C2.43565 13.8305 2.23848 13.6338 1.99554 13.6338H1.9907C1.74775 13.6338 1.55322 13.8305 1.55322 14.0739C1.55322 14.3173 1.75215 14.514 1.99554 14.514Z" fill="white"/>
<path d="M2.43565 16.7121C2.43565 16.4687 2.23848 16.272 1.99554 16.272H1.9907C1.74775 16.272 1.55322 16.4687 1.55322 16.7121C1.55322 16.9555 1.75215 17.1522 1.99554 17.1522C2.23804 17.1522 2.43565 16.9555 2.43565 16.7121Z" fill="white"/>
<path d="M6.83318 22.8677C7.07613 22.8677 7.2733 22.6709 7.2733 22.4275C7.2733 22.1842 7.07613 21.9874 6.83318 21.9874H6.82834C6.5854 21.9874 6.39087 22.1842 6.39087 22.4275C6.39087 22.6709 6.5898 22.8677 6.83318 22.8677Z" fill="white"/>
<path d="M6.83318 23.7462H6.82834C6.5854 23.7462 6.39087 23.9429 6.39087 24.1863C6.39087 24.4297 6.5898 24.6264 6.83318 24.6264C7.07613 24.6264 7.2733 24.4297 7.2733 24.1863C7.2733 23.9429 7.07569 23.7462 6.83318 23.7462Z" fill="white"/>
<path d="M26.6148 3.08179C25.6457 3.08179 24.8578 3.86926 24.8565 4.83789C24.8565 4.83833 24.8561 4.83877 24.8561 4.83921V18.9096C24.8561 19.1528 25.0526 19.3493 25.2958 19.3493H26.1751V25.0648H23.5282V21.108C23.5282 20.8649 23.3317 20.6684 23.0885 20.6684H20.4504C20.2073 20.6684 20.0107 20.8649 20.0107 21.108V25.0648H8.57801V21.108C8.57801 20.8649 8.38147 20.6684 8.13832 20.6684H5.50109C5.25794 20.6684 5.0614 20.8649 5.0614 21.108V25.0648H2.42328V19.3493H3.30266C3.5458 19.3493 3.74234 19.1528 3.74234 18.9096V18.4699V4.83921C3.74234 4.83877 3.7419 4.83833 3.7419 4.83789C3.74058 3.86926 2.95267 3.08179 1.9836 3.08179C1.01453 3.08179 0.226612 3.86926 0.225293 4.83789C0.225293 4.83833 0.224854 4.83877 0.224854 4.83921V18.9096C0.224854 19.1528 0.421393 19.3493 0.66454 19.3493H1.54391V25.0648H0.66454C0.421393 25.0648 0.224854 25.2613 0.224854 25.5045C0.224854 25.7476 0.421393 25.9441 0.66454 25.9441H5.49889C5.49977 25.9441 5.50021 25.9446 5.50109 25.9446H8.13832C8.1392 25.9446 8.13964 25.9441 8.14052 25.9441H20.4482C20.4491 25.9441 20.4495 25.9446 20.4504 25.9446H23.0885C23.0894 25.9446 23.0898 25.9441 23.0907 25.9441H27.9339C28.177 25.9441 28.3736 25.7476 28.3736 25.5045C28.3736 25.2613 28.177 25.0648 27.9339 25.0648H27.0545V19.3493H27.9339C28.177 19.3493 28.3736 19.1528 28.3736 18.9096V4.83921C28.3736 4.83877 28.3731 4.83833 28.3731 4.83789C28.3718 3.86926 27.5839 3.08179 26.6148 3.08179ZM1.10423 4.84053C1.10423 4.35556 1.49862 3.96116 1.9836 3.96116C2.46857 3.96116 2.86297 4.35556 2.86297 4.84053V18.4699H1.10423V4.84053ZM20.8901 21.5477H22.6488V25.0648H20.8901V21.5477ZM5.94077 21.5477H7.69864V25.0648H5.94077V21.5477ZM27.4942 18.4699H25.7354V4.84053C25.7354 4.35556 26.1298 3.96116 26.6148 3.96116C27.0998 3.96116 27.4942 4.35556 27.4942 4.84053V18.4699Z" fill="white"/>
<path d="M26.6274 5.71948H26.6225C26.3796 5.71948 26.1851 5.91621 26.1851 6.1596C26.1851 6.40298 26.384 6.59971 26.6274 6.59971C26.8703 6.59971 27.0675 6.40298 27.0675 6.1596C27.0675 5.91621 26.8703 5.71948 26.6274 5.71948Z" fill="white"/>
<path d="M26.6274 8.35767H26.6225C26.3796 8.35767 26.1851 8.5544 26.1851 8.79778C26.1851 9.04116 26.384 9.23789 26.6274 9.23789C26.8703 9.23789 27.0675 9.04116 27.0675 8.79778C27.0675 8.5544 26.8703 8.35767 26.6274 8.35767Z" fill="white"/>
<path d="M26.6274 10.9957H26.6225C26.3796 10.9957 26.1851 11.1925 26.1851 11.4358C26.1851 11.6792 26.384 11.876 26.6274 11.876C26.8703 11.876 27.0675 11.6792 27.0675 11.4358C27.0675 11.1925 26.8703 10.9957 26.6274 10.9957Z" fill="white"/>
<path d="M26.6274 13.6338H26.6225C26.3796 13.6338 26.1851 13.8305 26.1851 14.0739C26.1851 14.3173 26.384 14.514 26.6274 14.514C26.8703 14.514 27.0675 14.3173 27.0675 14.0739C27.0675 13.8305 26.8703 13.6338 26.6274 13.6338Z" fill="white"/>
<path d="M26.6274 16.272H26.6225C26.3796 16.272 26.1851 16.4687 26.1851 16.7121C26.1851 16.9555 26.384 17.1522 26.6274 17.1522C26.8703 17.1522 27.0675 16.9555 27.0675 16.7121C27.0675 16.4687 26.8703 16.272 26.6274 16.272Z" fill="white"/>
<path d="M21.7826 22.8677C22.0256 22.8677 22.2228 22.6709 22.2228 22.4275C22.2228 22.1842 22.0256 21.9874 21.7826 21.9874H21.7778C21.5349 21.9874 21.3403 22.1842 21.3403 22.4275C21.3403 22.6709 21.5393 22.8677 21.7826 22.8677Z" fill="white"/>
<path d="M21.7826 23.7462H21.7778C21.5349 23.7462 21.3403 23.9429 21.3403 24.1863C21.3403 24.4297 21.5393 24.6264 21.7826 24.6264C22.0256 24.6264 22.2228 24.4297 22.2228 24.1863C22.2228 23.9429 22.0252 23.7462 21.7826 23.7462Z" fill="white"/>
</g>
<defs>
<clipPath id="clip0_160_9663">
<rect width="28.1399" height="28.1399" fill="white" transform="translate(0.229004 0.443237)"/>
</clipPath>
</defs>
</svg>
