<svg width="30" height="29" viewBox="0 0 30 29" fill="none" xmlns="http://www.w3.org/2000/svg">
<g clip-path="url(#clip0_160_9715)">
<path d="M26.897 25.1833V10.3387C26.897 9.5799 26.2818 8.96472 25.5229 8.96472H4.36987C3.61103 8.96472 2.99585 9.5799 2.99585 10.3387V25.1833" stroke="white" stroke-width="0.824411" stroke-miterlimit="10" stroke-linecap="round" stroke-linejoin="round"/>
<path d="M5.10065 25.1833H1.70127C1.47362 25.1833 1.28906 25.3679 1.28906 25.5956V26.3702C1.28906 27.129 1.90424 27.7442 2.66308 27.7442H27.2305C27.9894 27.7442 28.6046 27.129 28.6046 26.3702V25.5956C28.6046 25.3679 28.42 25.1833 28.1924 25.1833H18.3612L17.9101 25.6345C17.6524 25.8922 17.3029 26.0369 16.9385 26.0369H12.9551C12.5907 26.0369 12.2412 25.8922 11.9835 25.6345L11.5323 25.1833H7.02422" stroke="white" stroke-width="0.824411" stroke-miterlimit="10" stroke-linecap="round" stroke-linejoin="round"/>
<path d="M25.1915 10.672H4.70483V23.4762H25.1915V10.672Z" stroke="white" stroke-width="0.824411" stroke-miterlimit="10" stroke-linecap="round" stroke-linejoin="round"/>
<path d="M11.533 21.769C12.0045 21.769 12.3866 21.3868 12.3866 20.9154V13.2329C12.3866 12.7614 12.0044 12.3793 11.533 12.3793C11.0616 12.3793 10.6794 12.7615 10.6794 13.2329V20.9153C10.6794 21.3868 11.0616 21.769 11.533 21.769Z" stroke="white" stroke-width="0.824411" stroke-miterlimit="10" stroke-linecap="round" stroke-linejoin="round"/>
<path d="M17.9347 15.1503V14.0863H19.2151C19.6866 14.0863 20.0687 13.7041 20.0687 13.2327C20.0687 12.7613 19.6865 12.3792 19.2151 12.3792H14.9471C14.4756 12.3792 14.0935 12.7613 14.0935 13.2327C14.0935 13.7041 14.4757 14.0863 14.9471 14.0863H16.2275V20.9152C16.2275 21.3867 16.6097 21.7688 17.0811 21.7688C17.5525 21.7688 17.9347 21.3866 17.9347 20.9152V17.074" stroke="white" stroke-width="0.824411" stroke-miterlimit="10" stroke-linecap="round" stroke-linejoin="round"/>
<path d="M19.7751 4.13612L21.6143 2.29697C21.7174 2.19392 21.8572 2.13599 22.0029 2.13599H23.4825" stroke="white" stroke-width="0.824411" stroke-miterlimit="10" stroke-linecap="round" stroke-linejoin="round"/>
<path d="M24.3368 2.98942C24.8082 2.98942 25.1903 2.60725 25.1903 2.13582C25.1903 1.66439 24.8082 1.28223 24.3368 1.28223C23.8653 1.28223 23.4832 1.66439 23.4832 2.13582C23.4832 2.60725 23.8653 2.98942 24.3368 2.98942Z" stroke="white" stroke-width="0.824411" stroke-miterlimit="10" stroke-linecap="round" stroke-linejoin="round"/>
<path d="M25.1903 7.25748C25.6617 7.25748 26.0439 6.87532 26.0439 6.40389C26.0439 5.93246 25.6617 5.55029 25.1903 5.55029C24.7188 5.55029 24.3367 5.93246 24.3367 6.40389C24.3367 6.87532 24.7188 7.25748 25.1903 7.25748Z" stroke="white" stroke-width="0.824411" stroke-miterlimit="10" stroke-linecap="round" stroke-linejoin="round"/>
<path d="M10.1182 4.136L8.27906 2.29684C8.17601 2.19379 8.03619 2.13586 7.89043 2.13586H6.41089" stroke="white" stroke-width="0.824411" stroke-miterlimit="10" stroke-linecap="round" stroke-linejoin="round"/>
<path d="M5.55843 2.98942C6.02986 2.98942 6.41202 2.60725 6.41202 2.13582C6.41202 1.66439 6.02986 1.28223 5.55843 1.28223C5.087 1.28223 4.70483 1.66439 4.70483 2.13582C4.70483 2.60725 5.087 2.98942 5.55843 2.98942Z" stroke="white" stroke-width="0.824411" stroke-miterlimit="10" stroke-linecap="round" stroke-linejoin="round"/>
<path d="M24.3371 6.40393H20.1287" stroke="white" stroke-width="0.824411" stroke-miterlimit="10" stroke-linecap="round" stroke-linejoin="round"/>
<path d="M4.70394 7.25748C5.17536 7.25748 5.55753 6.87532 5.55753 6.40389C5.55753 5.93246 5.17536 5.55029 4.70394 5.55029C4.23251 5.55029 3.85034 5.93246 3.85034 6.40389C3.85034 6.87532 4.23251 7.25748 4.70394 7.25748Z" stroke="white" stroke-width="0.824411" stroke-miterlimit="10" stroke-linecap="round" stroke-linejoin="round"/>
<path d="M5.55713 6.40393H9.76553" stroke="white" stroke-width="0.824411" stroke-miterlimit="10" stroke-linecap="round" stroke-linejoin="round"/>
<path d="M21.7759 8.96474V8.16891C21.7759 8.01276 21.6877 7.87003 21.548 7.80023L20.6242 7.33828C20.528 7.29019 20.454 7.2066 20.4194 7.10476C20.3384 6.86612 20.2421 6.63451 20.1319 6.4111C20.0842 6.31453 20.0773 6.20296 20.1114 6.10084L20.4381 5.12056C20.4875 4.97244 20.4489 4.8091 20.3385 4.69874L19.213 3.57325C19.1026 3.46284 18.9393 3.42431 18.7912 3.47366L17.8109 3.80041C17.7088 3.83448 17.5972 3.82756 17.5007 3.77991C17.2772 3.66965 17.0456 3.57342 16.807 3.49235C16.7052 3.45778 16.6216 3.38375 16.5735 3.28757L16.1115 2.36373C16.0417 2.22408 15.899 2.13586 15.7429 2.13586H14.1512C13.9951 2.13586 13.8523 2.22408 13.7825 2.36373L13.3206 3.28757C13.2725 3.38375 13.1889 3.45778 13.0871 3.49235C12.8484 3.57342 12.6168 3.66965 12.3934 3.77991C12.2968 3.82756 12.1853 3.83443 12.0831 3.80041L11.1029 3.47366C10.9547 3.42431 10.7915 3.46284 10.681 3.57325L9.55555 4.69874C9.44514 4.80916 9.40661 4.97244 9.45596 5.12056L9.78271 6.10084C9.81678 6.20296 9.80986 6.31453 9.7622 6.4111C9.65195 6.63457 9.55572 6.86617 9.47465 7.10476C9.44008 7.20654 9.36605 7.29019 9.26987 7.33828L8.34603 7.80023C8.20638 7.87008 8.11816 8.01276 8.11816 8.16891V8.96474" stroke="white" stroke-width="0.824411" stroke-miterlimit="10" stroke-linecap="round" stroke-linejoin="round"/>
<path d="M14.7244 6.41349C14.7978 6.40717 14.8722 6.40393 14.9473 6.40393C16.3616 6.40393 17.5081 7.55047 17.5081 8.96477" stroke="white" stroke-width="0.824411" stroke-miterlimit="10" stroke-linecap="round" stroke-linejoin="round"/>
<path d="M12.3862 8.96474C12.3862 8.3416 12.6088 7.77044 12.9788 7.32642" stroke="white" stroke-width="0.824411" stroke-miterlimit="10" stroke-linecap="round" stroke-linejoin="round"/>
</g>
<defs>
<clipPath id="clip0_160_9715">
<rect width="28.1399" height="28.1399" fill="white" transform="translate(0.876465 0.443237)"/>
</clipPath>
</defs>
</svg>
