<svg width="50" height="50" viewBox="0 0 50 50" fill="none" xmlns="http://www.w3.org/2000/svg">
<g opacity="0.9">
<path fill-rule="evenodd" clip-rule="evenodd" d="M32.153 45.0524C29.6285 46.1425 26.931 46.6875 24.0605 46.6875C21.1901 46.6875 18.4926 46.1425 15.9681 45.0524C13.4435 43.9637 11.2474 42.4856 9.37992 40.6181C7.51242 38.7506 6.03433 36.5546 4.94564 34.03C3.85558 31.5054 3.31055 28.8079 3.31055 25.9375C3.31055 23.0671 3.85558 20.3696 4.94564 17.845C6.03433 15.3204 7.51242 13.1244 9.37992 11.2569C11.2474 9.38938 13.4435 7.91059 15.9681 6.82052C18.4926 5.73184 21.1901 5.1875 24.0605 5.1875C26.931 5.1875 29.6285 5.73184 32.153 6.82052C34.6776 7.91059 36.8737 9.38938 38.7412 11.2569C40.6087 13.1244 42.0868 15.3204 43.1754 17.845C44.2655 20.3696 44.8105 23.0671 44.8105 25.9375C44.8105 28.8079 44.2655 31.5054 43.1754 34.03C42.0868 36.5546 40.6087 38.7506 38.7412 40.6181C36.8737 42.4856 34.6776 43.9637 32.153 45.0524ZM22.5445 25.9375L27.5764 30.9694C28.0821 31.4752 28.0692 32.3052 27.5764 32.811C27.4564 32.9312 27.3139 33.0266 27.157 33.0916C27.0001 33.1567 26.8319 33.1902 26.6621 33.1902C26.4922 33.1902 26.324 33.1567 26.1671 33.0916C26.0103 33.0266 25.8677 32.9312 25.7478 32.811L19.7951 26.8583C19.2893 26.3525 19.2893 25.5355 19.7951 25.0297L25.7478 19.0771C25.8678 18.957 26.0104 18.8617 26.1673 18.7968C26.3241 18.7318 26.4923 18.6983 26.6621 18.6983C26.8319 18.6983 27 18.7318 27.1569 18.7968C27.3138 18.8617 27.4563 18.957 27.5764 19.0771C27.6964 19.1971 27.7917 19.3397 27.8567 19.4965C27.9216 19.6534 27.9551 19.8216 27.9551 19.9914C27.9551 20.1612 27.9216 20.3293 27.8567 20.4862C27.7917 20.643 27.6964 20.7856 27.5764 20.9056L22.5445 25.9375Z" fill="#066595"/>
</g>
</svg>
