<svg width="29" height="28" viewBox="0 0 29 28" fill="none" xmlns="http://www.w3.org/2000/svg">
<g clip-path="url(#clip0_160_9775)">
<path d="M19.1133 18.1513C22.0225 13.5863 21.6568 14.1558 21.7406 14.0368C22.7997 12.5429 23.3596 10.7846 23.3596 8.95197C23.3596 4.09188 19.4157 0.0882568 14.5492 0.0882568C9.69864 0.0882568 5.73891 4.08398 5.73891 8.95197C5.73891 10.7835 6.31046 12.5878 7.40433 14.1018L9.98506 18.1513C7.22582 18.5754 2.53516 19.839 2.53516 22.6213C2.53516 23.6356 3.19716 25.081 6.35093 26.2073C8.55309 26.9938 11.4646 27.427 14.5492 27.427C20.3173 27.427 26.5633 25.7999 26.5633 22.6213C26.5633 19.8385 21.8781 18.5762 19.1133 18.1513ZM8.74237 13.2207C8.73356 13.2069 8.72438 13.1935 8.71477 13.1802C7.80453 11.928 7.34079 10.4439 7.34079 8.95197C7.34079 4.94632 10.5662 1.69013 14.5492 1.69013C18.524 1.69013 21.7577 4.94776 21.7577 8.95197C21.7577 10.4463 21.3027 11.88 20.4417 13.0993C20.3645 13.2011 20.7671 12.5757 14.5492 22.3324L8.74237 13.2207ZM14.5492 25.8251C8.24884 25.8251 4.13703 23.9731 4.13703 22.6213C4.13703 21.7127 6.2498 20.2188 10.9316 19.6364L13.8738 24.2532C14.0208 24.484 14.2755 24.6237 14.5492 24.6237C14.8228 24.6237 15.0776 24.4839 15.2246 24.2532L18.1667 19.6364C22.8486 20.2188 24.9614 21.7127 24.9614 22.6213C24.9614 23.9617 20.8866 25.8251 14.5492 25.8251Z" fill="#737373"/>
<path d="M14.5506 4.94727C12.3424 4.94727 10.5459 6.74377 10.5459 8.95196C10.5459 11.1601 12.3424 12.9566 14.5506 12.9566C16.7588 12.9566 18.5553 11.1601 18.5553 8.95196C18.5553 6.74377 16.7588 4.94727 14.5506 4.94727ZM14.5506 11.3548C13.2257 11.3548 12.1478 10.2769 12.1478 8.95196C12.1478 7.62704 13.2257 6.54914 14.5506 6.54914C15.8755 6.54914 16.9534 7.62704 16.9534 8.95196C16.9534 10.2769 15.8755 11.3548 14.5506 11.3548Z" fill="#737373"/>
</g>
<defs>
<clipPath id="clip0_160_9775">
<rect width="27.3387" height="27.3387" fill="white" transform="translate(0.881836 0.0882568)"/>
</clipPath>
</defs>
</svg>
