<svg width="67" height="66" viewBox="0 0 67 66" fill="none" xmlns="http://www.w3.org/2000/svg">
<g opacity="0.8">
<path fill-rule="evenodd" clip-rule="evenodd" d="M23.2039 57.3198C26.4159 58.7067 29.8479 59.4001 33.4999 59.4001C37.1519 59.4001 40.5839 58.7067 43.7958 57.3198C47.0079 55.9347 49.8019 54.0541 52.1779 51.6781C54.5539 49.3021 56.4344 46.5081 57.8195 43.2961C59.2064 40.0841 59.8999 36.6521 59.8999 33.0001C59.8999 29.3481 59.2064 25.9161 57.8195 22.7041C56.4344 19.4921 54.5539 16.6981 52.1779 14.3221C49.8019 11.9461 47.0079 10.0647 43.7958 8.67778C40.5839 7.29266 37.1519 6.6001 33.4999 6.6001C29.8479 6.6001 26.4159 7.29266 23.2039 8.67778C19.9919 10.0647 17.1979 11.9461 14.8219 14.3221C12.4459 16.6981 10.5653 19.4921 9.18017 22.7041C7.79329 25.9161 7.09985 29.3481 7.09985 33.0001C7.09985 36.6521 7.79329 40.0841 9.18017 43.2961C10.5653 46.5081 12.4459 49.3021 14.8219 51.6781C17.1979 54.0541 19.9919 55.9347 23.2039 57.3198ZM35.427 33.0001L29.025 39.4021C28.3815 40.0456 28.398 41.1016 29.025 41.7451C29.1777 41.8981 29.359 42.0194 29.5586 42.1022C29.7582 42.185 29.9722 42.2277 30.1883 42.2277C30.4044 42.2277 30.6184 42.185 30.818 42.1022C31.0176 42.0194 31.1989 41.8981 31.3515 41.7451L38.925 34.1716C39.5685 33.5281 39.5685 32.4886 38.925 31.8451L31.3515 24.2716C31.1988 24.1189 31.0174 23.9977 30.8178 23.915C30.6183 23.8323 30.4043 23.7898 30.1883 23.7898C29.9723 23.7898 29.7583 23.8323 29.5588 23.915C29.3592 23.9977 29.1778 24.1189 29.025 24.2716C28.8723 24.4244 28.7511 24.6057 28.6684 24.8053C28.5858 25.0049 28.5432 25.2188 28.5432 25.4349C28.5432 25.6509 28.5858 25.8648 28.6684 26.0644C28.7511 26.264 28.8723 26.4454 29.025 26.5981L35.427 33.0001Z" fill="#BB6DA6"/>
</g>
</svg>
