<svg width="50" height="50" viewBox="0 0 50 50" fill="none" xmlns="http://www.w3.org/2000/svg">
<g opacity="0.5">
<path fill-rule="evenodd" clip-rule="evenodd" d="M17.843 45.0524C20.3676 46.1425 23.0651 46.6875 25.9355 46.6875C28.806 46.6875 31.5035 46.1425 34.028 45.0524C36.5526 43.9637 38.7487 42.4856 40.6162 40.6181C42.4837 38.7506 43.9618 36.5546 45.0504 34.03C46.1405 31.5054 46.6855 28.8079 46.6855 25.9375C46.6855 23.0671 46.1405 20.3696 45.0504 17.845C43.9618 15.3204 42.4837 13.1244 40.6162 11.2569C38.7487 9.38938 36.5526 7.91059 34.028 6.82052C31.5035 5.73184 28.806 5.1875 25.9355 5.1875C23.0651 5.1875 20.3676 5.73184 17.843 6.82052C15.3185 7.91059 13.1224 9.38938 11.2549 11.2569C9.38742 13.1244 7.90933 15.3204 6.82065 17.845C5.73058 20.3696 5.18555 23.0671 5.18555 25.9375C5.18555 28.8079 5.73058 31.5054 6.82065 34.03C7.90933 36.5546 9.38742 38.7506 11.2549 40.6181C13.1224 42.4856 15.3185 43.9637 17.843 45.0524ZM27.4497 25.9375L22.4178 30.9694C21.912 31.4752 21.925 32.3052 22.4178 32.811C22.5378 32.9312 22.6803 33.0266 22.8372 33.0917C22.994 33.1567 23.1622 33.1902 23.3321 33.1902C23.5019 33.1902 23.6701 33.1567 23.827 33.0917C23.9839 33.0266 24.1264 32.9312 24.2464 32.811L30.199 26.8583C30.7048 26.3525 30.7048 25.5355 30.199 25.0297L24.2464 19.0771C24.1263 18.957 23.9838 18.8618 23.8269 18.7968C23.67 18.7318 23.5019 18.6983 23.3321 18.6983C23.1623 18.6983 22.9941 18.7318 22.8373 18.7968C22.6804 18.8618 22.5378 18.957 22.4178 19.0771C22.2977 19.1971 22.2025 19.3397 22.1375 19.4965C22.0725 19.6534 22.0391 19.8216 22.0391 19.9914C22.0391 20.1612 22.0725 20.3293 22.1375 20.4862C22.2025 20.643 22.2977 20.7856 22.4178 20.9057L27.4497 25.9375Z" fill="#454545"/>
</g>
</svg>
