<svg width="53" height="54" viewBox="0 0 53 54" fill="none" xmlns="http://www.w3.org/2000/svg">
<path opacity="0.5" fill-rule="evenodd" clip-rule="evenodd" d="M36.7944 51.3198C33.5824 52.7067 30.1504 53.4001 26.4984 53.4001C22.8464 53.4001 19.4144 52.7067 16.2024 51.3198C12.9904 49.9347 10.1964 48.0541 7.82043 45.6781C5.44444 43.3021 3.56388 40.5081 2.17876 37.2961C0.791878 34.0841 0.0984383 30.6521 0.0984383 27.0001C0.0984383 23.3481 0.791878 19.9161 2.17876 16.7041C3.56388 13.4921 5.44444 10.6981 7.82043 8.3221C10.1964 5.9461 12.9904 4.06466 16.2024 2.67778C19.4144 1.29266 22.8464 0.600098 26.4984 0.600098C30.1504 0.600098 33.5824 1.29266 36.7944 2.67778C40.0064 4.06466 42.8004 5.9461 45.1764 8.3221C47.5524 10.6981 49.433 13.4921 50.8181 16.7041C52.205 19.9161 52.8984 23.3481 52.8984 27.0001C52.8984 30.6521 52.205 34.0841 50.8181 37.2961C49.433 40.5081 47.5524 43.3021 45.1764 45.6781C42.8004 48.0541 40.0064 49.9347 36.7944 51.3198ZM24.5712 27.0001L30.9732 33.4021C31.6167 34.0456 31.6002 35.1016 30.9732 35.7451C30.8206 35.8981 30.6393 36.0194 30.4397 36.1022C30.2401 36.185 30.0261 36.2277 29.81 36.2277C29.5939 36.2277 29.3799 36.185 29.1803 36.1022C28.9807 36.0194 28.7994 35.8981 28.6467 35.7451L21.0732 28.1716C20.4297 27.5281 20.4297 26.4886 21.0732 25.8451L28.6467 18.2716C28.7995 18.1189 28.9809 17.9977 29.1804 17.915C29.38 17.8323 29.594 17.7898 29.81 17.7898C30.026 17.7898 30.24 17.8323 30.4395 17.915C30.6391 17.9977 30.8205 18.1189 30.9732 18.2716C31.126 18.4244 31.2472 18.6057 31.3299 18.8053C31.4125 19.0049 31.4551 19.2188 31.4551 19.4349C31.4551 19.6509 31.4125 19.8648 31.3299 20.0644C31.2472 20.264 31.126 20.4454 30.9732 20.5981L24.5712 27.0001Z" fill="#A2A2A2"/>
</svg>
