<svg width="7" height="11" viewBox="0 0 7 11" fill="none" xmlns="http://www.w3.org/2000/svg">
<path d="M0.986074 8.81728L4.29464 5.5087L0.986074 2.20013C0.907127 2.12119 0.844503 2.02746 0.801778 1.92431C0.759052 1.82117 0.737061 1.71061 0.737061 1.59896C0.737061 1.48732 0.759052 1.37676 0.801778 1.27361C0.844503 1.17046 0.907127 1.07674 0.986074 0.997793C1.06502 0.918846 1.15874 0.856222 1.26189 0.813496C1.36504 0.77077 1.4756 0.748779 1.58724 0.748779C1.69889 0.748779 1.80945 0.77077 1.9126 0.813496C2.01574 0.856222 2.10947 0.918846 2.18842 0.997793L6.10242 4.9118C6.43498 5.24436 6.43498 5.78158 6.10242 6.11414L2.18842 10.0281C2.10953 10.1072 2.01582 10.1699 1.91266 10.2127C1.80951 10.2555 1.69892 10.2775 1.58724 10.2775C1.47556 10.2775 1.36498 10.2555 1.26182 10.2127C1.15867 10.1699 1.06496 10.1072 0.986074 10.0281C0.662039 9.69558 0.653511 9.14984 0.986074 8.81728Z" fill="white"/>
</svg>
