<svg width="7" height="11" viewBox="0 0 7 11" fill="none" xmlns="http://www.w3.org/2000/svg">
<path d="M6.15675 2.20897L2.84818 5.51754L6.15675 8.82611C6.2357 8.90506 6.29832 8.99878 6.34104 9.10193C6.38377 9.20508 6.40576 9.31563 6.40576 9.42728C6.40576 9.53893 6.38377 9.64948 6.34104 9.75263C6.29832 9.85578 6.2357 9.94951 6.15675 10.0285C6.0778 10.1074 5.98408 10.17 5.88093 10.2127C5.77778 10.2555 5.66723 10.2775 5.55558 10.2775C5.44393 10.2775 5.33338 10.2555 5.23023 10.2127C5.12708 10.17 5.03335 10.1074 4.95441 10.0285L1.0404 6.11445C0.707839 5.78188 0.707839 5.24467 1.0404 4.91211L4.95441 0.998101C5.0333 0.919051 5.127 0.856335 5.23016 0.813544C5.33331 0.770753 5.4439 0.748727 5.55558 0.748727C5.66726 0.748727 5.77784 0.770753 5.881 0.813544C5.98415 0.856335 6.07786 0.919051 6.15675 0.998101C6.48078 1.33066 6.48931 1.87641 6.15675 2.20897Z" fill="white"/>
</svg>
